<svg width="164" height="255" viewBox="0 0 164 255" fill="none" xmlns="http://www.w3.org/2000/svg">
<path d="M59.2855 35.1899V35.78C48.6055 38.31 39.2455 56.71 39.8355 81.8C40.4455 108.66 51.7155 127.37 60.3255 129V129.59C26.3355 129.29 1.54549 113.71 0.0654943 84.6099C-1.42451 55.0699 22.6355 36.6699 59.2855 35.1799V35.1899Z" fill="white"/>
<path d="M120.156 232.91C120.156 220.29 104.865 211.39 62.1155 202.63C23.6655 194.77 4.81543 185.41 4.81543 166.86C4.81543 148.31 24.5655 138.06 36.8855 134.79L37.1753 135.24C30.7953 138.06 28.1255 142.07 28.1255 145.93C28.1255 155.13 42.8255 161.52 75.6255 168.04C117.045 176.2 144.205 183.03 144.205 209.61C144.205 236.19 119.715 250.87 96.7053 254.44L96.5654 253.85C109.775 250.28 120.175 243.16 120.175 232.92L120.156 232.91Z" fill="white"/>
<path d="M74.1255 35.1899C108.415 35.4899 134.245 49.5899 135.585 78.6799C136.915 108.22 112.125 128.11 75.1653 129.59V129C85.8653 127.36 96.8354 109.85 95.7954 81.8C94.9154 58.05 85.7055 36.37 74.1255 35.78V35.1899Z" fill="white"/>
<path d="M162.745 0.0100098L163.195 0.600098C160.825 12.3201 160.075 44.24 162.455 70.22L161.865 70.3599C156.215 42.4499 144.945 26.57 125.335 26.27L125.195 25.6799C138.405 18.8499 151.025 10.98 162.745 0V0.0100098Z" fill="white"/>
</svg>
